<svg width="282" height="139" viewBox="0 0 282 139" fill="none" xmlns="http://www.w3.org/2000/svg">
<path fill-rule="evenodd" clip-rule="evenodd" d="M227.143 14.4941C213.981 11.1538 200.052 12.7276 187.967 18.9206C175.882 25.1135 166.47 35.5007 161.494 48.1357L149.604 43.4531C155.719 27.9245 167.287 15.1586 182.139 7.54746C196.992 -0.0637311 214.11 -1.99792 230.287 2.10732C246.463 6.21255 260.588 16.0755 270.014 29.848C277.209 40.3616 281.29 52.6027 281.915 65.1763H282V68.4601C282 68.5417 282 68.6233 282 68.7049L282 77.9557H210.435V65.1763H269.116C268.504 55.1688 265.201 45.4433 259.468 37.0658C251.798 25.8595 240.306 17.8344 227.143 14.4941ZM25.7331 33.6873C33.0823 24.8781 42.9679 18.548 54.0439 15.559C65.1199 12.57 76.848 13.0673 87.6312 16.9832C98.4144 20.8992 107.729 28.0434 114.306 37.4431L124.776 30.1167C116.693 18.5644 105.246 9.78403 91.9933 4.97131C78.7407 0.158601 64.3268 -0.452619 50.7143 3.2209C37.1018 6.89441 24.9523 14.6741 15.9201 25.5007C6.88797 36.3273 1.41211 49.6745 0.238183 63.725C-0.935742 77.7755 2.24932 91.8464 9.35967 104.022C16.47 116.197 27.1601 125.885 39.9743 131.766C52.7884 137.648 67.1039 139.437 80.9715 136.89C94.839 134.343 107.585 127.584 117.473 117.534L108.363 108.571C100.317 116.749 89.9466 122.249 78.6631 124.321C67.3795 126.393 55.7315 124.937 45.3051 120.152C34.8787 115.366 26.1805 107.484 20.3951 97.577C14.6097 87.6704 12.0181 76.2214 12.9733 64.789C13.9284 53.3566 18.384 42.4965 25.7331 33.6873ZM206.211 124.962C196.124 124.135 186.452 120.581 178.23 114.679C177.788 114.362 176.749 113.38 175.088 111.384C173.523 109.504 171.682 107.062 169.642 104.183C165.566 98.4318 160.879 91.1939 156.297 83.7721C147.038 68.7763 138.627 53.713 136.602 49.0216L124.869 54.0858C127.314 59.7505 136.206 75.5567 145.423 90.4858C150.079 98.0265 154.923 105.515 159.215 111.572C161.358 114.596 163.41 117.329 165.264 119.558C167.023 121.672 168.93 123.734 170.778 125.061C180.883 132.314 192.77 136.683 205.167 137.699C217.564 138.715 230.004 136.341 241.155 130.83C252.306 125.32 261.749 116.88 268.472 106.415L257.72 99.5079C252.25 108.023 244.567 114.89 235.493 119.374C226.42 123.857 216.298 125.789 206.211 124.962Z" fill="url(#paint0_linear_1012_98)"/>
<defs>
<linearGradient id="paint0_linear_1012_98" x1="3.47689e-05" y1="68.9283" x2="281.979" y2="68.9283" gradientUnits="userSpaceOnUse">
<stop stop-color="#F23793"/>
<stop offset="1" stop-color="#0085FF"/>
</linearGradient>
</defs>
</svg>
